ffmpeg started on 2025-05-12 at 14:47:14
Report written to "D:\Convert\FFMetrics\reports\psnr_report-6.txt"
Log level: 32
Command line:
ffmpeg -hide_banner -nostdin -i "G:\\\xc0\xed\xe8\xec\xe5\\\xce\xed\xe3\xee\xe8\xed\xe3\xe8\\!_35_\xcb\xe5\xf2\xee_2024\\DreamCast\\\xc4\xe8\xf1\xea\xe2\xe0\xeb\xe8\xf4\xe8\xf6\xe8\xf0\xee\xe2\xe0\xed \xef\xee \xe6\xe8\xe7\xed\xe8\\[DC] Isekai Shikkaku - 07_Telegram_HEVC.mkv" -i "G:\\\xc0\xed\xe8\xec\xe5\\\xce\xed\xe3\xee\xe8\xed\xe3\xe8\\!_35_\xcb\xe5\xf2\xee_2024\\DreamCast\\\xc4\xe8\xf1\xea\xe2\xe0\xeb\xe8\xf4\xe8\xf6\xe8\xf0\xee\xe2\xe0\xed \xef\xee \xe6\xe8\xe7\xed\xe8\\[DC] Isekai Shikkaku - 07_Telegram.mp4" -lavfi "[0:v]settb=AVTB,setpts=PTS-STARTPTS,format=pix_fmts=yuv420p10,fps=24000/1001,scale=1920:1080:flags=bicubic[main];[1:v]settb=AVTB,setpts=PTS-STARTPTS,format=pix_fmts=yuv420p,fps=24000/1001,scale=1920:1080:flags=bicubic[ref];[main][ref]psnr=eof_action=endall:stats_file='D\\:/Convert/FFMetrics/logs/psnr_logfile-6.txt'" -f null -
Input #0, matroska,webm, from 'G:\Аниме\Онгоинги\!_35_Лето_2024\DreamCast\Дисквалифицирован по жизни\[DC] Isekai Shikkaku - 07_Telegram_HEVC.mkv':
  Metadata:
    COMPATIBLE_BRANDS: isomiso2avc1mp41
    MAJOR_BRAND     : isom
    MINOR_VERSION   : 512
    ENCODER         : Lavf61.7.100
  Duration: 00:23:46.73, start: -0.021000, bitrate: 1002 kb/s
  Stream #0:0: Video: hevc (Main 10), yuv420p10le(tv, bt709, progressive), 1920x1080 [SAR 1:1 DAR 16:9], 23.98 fps, 23.98 tbr, 1k tbn (default)
      Metadata:
        HANDLER_NAME    : VideoHandler
        VENDOR_ID       : [0][0][0][0]
        ENCODER         : Lavc61.19.100 libx265
        BPS             : 805693
        DURATION        : 00:23:46.633708333
        NUMBER_OF_FRAMES: 34205
        NUMBER_OF_BYTES : 143678671
        _STATISTICS_WRITING_APP: mkvpropedit v66.0.0 ('Josie') 64-bit
        _STATISTICS_WRITING_DATE_UTC: 2025-05-07 11:07:06
        _STATISTICS_TAGS: BPS DURATION NUMBER_OF_FRAMES NUMBER_OF_BYTES
  Stream #0:1: Audio: aac (LC), 48000 Hz, stereo, fltp (default)
      Metadata:
        HANDLER_NAME    : SoundHandler
        VENDOR_ID       : [0][0][0][0]
        ENCODER         : Lavc61.19.100 aac
        BPS             : 193060
        DURATION        : 00:23:46.730000000
        NUMBER_OF_FRAMES: 66879
        NUMBER_OF_BYTES : 34430724
        _STATISTICS_WRITING_APP: mkvpropedit v66.0.0 ('Josie') 64-bit
        _STATISTICS_WRITING_DATE_UTC: 2025-05-07 11:07:06
        _STATISTICS_TAGS: BPS DURATION NUMBER_OF_FRAMES NUMBER_OF_BYTES
Input #1, mov,mp4,m4a,3gp,3g2,mj2, from 'G:\Аниме\Онгоинги\!_35_Лето_2024\DreamCast\Дисквалифицирован по жизни\[DC] Isekai Shikkaku - 07_Telegram.mp4':
  Metadata:
    major_brand     : isom
    minor_version   : 512
    compatible_brands: isomiso2avc1mp41
    encoder         : Lavf60.16.100
  Duration: 00:23:46.70, start: 0.000000, bitrate: 3828 kb/s
  Stream #1:0[0x1](und): Video: h264 (High) (avc1 / 0x31637661), yuv420p(tv, bt709, progressive), 1920x1080 [SAR 1:1 DAR 16:9], 3680 kb/s, 23.98 fps, 23.98 tbr, 24k tbn (default)
      Metadata:
        handler_name    : VideoHandler
        vendor_id       : [0][0][0][0]
        encoder         : Lavc60.31.102 h264_qsv
  Stream #1:1[0x2](und): Audio: aac (HE-AACv2) (mp4a / 0x6134706D), 48000 Hz, stereo, fltp, 144 kb/s (default)
      Metadata:
        handler_name    : SoundHandler
        vendor_id       : [0][0][0][0]
Stream mapping:
  Stream #0:0 (hevc) -> settb:default
  Stream #1:0 (h264) -> settb:default
  psnr:default -> Stream #0:0 (wrapped_avframe)
  Stream #0:1 -> #0:1 (aac (native) -> pcm_s16le (native))
Output #0, null, to 'pipe:':
  Metadata:
    COMPATIBLE_BRANDS: isomiso2avc1mp41
    MAJOR_BRAND     : isom
    MINOR_VERSION   : 512
    encoder         : Lavf61.7.100
  Stream #0:0: Video: wrapped_avframe, yuv420p10le(tv, bt709, progressive), 1920x1080 [SAR 1:1 DAR 16:9], q=2-31, 200 kb/s, 23.98 fps, 23.98 tbn
      Metadata:
        encoder         : Lavc61.19.100 wrapped_avframe
  Stream #0:1: Audio: pcm_s16le, 48000 Hz, stereo, s16, 1536 kb/s (default)
      Metadata:
        HANDLER_NAME    : SoundHandler
        VENDOR_ID       : [0][0][0][0]
        _STATISTICS_TAGS: BPS DURATION NUMBER_OF_FRAMES NUMBER_OF_BYTES
        BPS             : 193060
        DURATION        : 00:23:46.730000000
        NUMBER_OF_FRAMES: 66879
        NUMBER_OF_BYTES : 34430724
        _STATISTICS_WRITING_APP: mkvpropedit v66.0.0 ('Josie') 64-bit
        _STATISTICS_WRITING_DATE_UTC: 2025-05-07 11:07:06
        encoder         : Lavc61.19.100 pcm_s16le
frame=  164 fps=0.0 q=-0.0 size=N/A time=00:00:06.84 bitrate=N/A speed=13.4x    frame=  385 fps=373 q=-0.0 size=N/A time=00:00:16.05 bitrate=N/A speed=15.6x    frame=  630 fps=410 q=-0.0 size=N/A time=00:00:26.27 bitrate=N/A speed=17.1x    frame=  899 fps=436 q=-0.0 size=N/A time=00:00:37.49 bitrate=N/A speed=18.2x    frame= 1140 fps=444 q=-0.0 size=N/A time=00:00:47.54 bitrate=N/A speed=18.5x    frame= 1385 fps=448 q=-0.0 size=N/A time=00:00:57.76 bitrate=N/A speed=18.7x    frame= 1625 fps=450 q=-0.0 size=N/A time=00:01:07.77 bitrate=N/A speed=18.8x    frame= 1884 fps=457 q=-0.0 size=N/A time=00:01:18.57 bitrate=N/A speed=  19x    frame= 2144 fps=463 q=-0.0 size=N/A time=00:01:29.42 bitrate=N/A speed=19.3x    frame= 2404 fps=466 q=-0.0 size=N/A time=00:01:40.26 bitrate=N/A speed=19.4x    frame= 2649 fps=467 q=-0.0 size=N/A time=00:01:50.48 bitrate=N/A speed=19.5x    frame= 2907 fps=471 q=-0.0 size=N/A time=00:02:01.24 bitrate=N/A speed=19.6x    frame= 3120 fps=466 q=-0.0 size=N/A time=00:02:10.13 bitrate=N/A speed=19.4x    frame= 3355 fps=465 q=-0.0 size=N/A time=00:02:19.93 bitrate=N/A speed=19.4x    frame= 3585 fps=464 q=-0.0 size=N/A time=00:02:29.52 bitrate=N/A speed=19.4x    frame= 3803 fps=461 q=-0.0 size=N/A time=00:02:38.61 bitrate=N/A speed=19.2x    frame= 4037 fps=461 q=-0.0 size=N/A time=00:02:48.37 bitrate=N/A speed=19.2x    frame= 4244 fps=458 q=-0.0 size=N/A time=00:02:57.01 bitrate=N/A speed=19.1x    frame= 4502 fps=460 q=-0.0 size=N/A time=00:03:07.77 bitrate=N/A speed=19.2x    frame= 4736 fps=460 q=-0.0 size=N/A time=00:03:17.53 bitrate=N/A speed=19.2x    frame= 4988 fps=461 q=-0.0 size=N/A time=00:03:28.04 bitrate=N/A speed=19.2x    frame= 5240 fps=462 q=-0.0 size=N/A time=00:03:38.55 bitrate=N/A speed=19.3x    frame= 5499 fps=464 q=-0.0 size=N/A time=00:03:49.35 bitrate=N/A speed=19.3x    frame= 5753 fps=465 q=-0.0 size=N/A time=00:03:59.94 bitrate=N/A speed=19.4x    frame= 5986 fps=465 q=-0.0 size=N/A time=00:04:09.66 bitrate=N/A speed=19.4x    frame= 6226 fps=465 q=-0.0 size=N/A time=00:04:19.67 bitrate=N/A speed=19.4x    frame= 6431 fps=462 q=-0.0 size=N/A time=00:04:28.22 bitrate=N/A speed=19.3x    frame= 6663 fps=462 q=-0.0 size=N/A time=00:04:37.90 bitrate=N/A speed=19.3x    frame= 6881 fps=461 q=-0.0 size=N/A time=00:04:46.99 bitrate=N/A speed=19.2x    frame= 7151 fps=462 q=-0.0 size=N/A time=00:04:58.25 bitrate=N/A speed=19.3x    frame= 7412 fps=464 q=-0.0 size=N/A time=00:05:09.14 bitrate=N/A speed=19.3x    frame= 7640 fps=463 q=-0.0 size=N/A time=00:05:18.65 bitrate=N/A speed=19.3x    frame= 7881 fps=463 q=-0.0 size=N/A time=00:05:28.70 bitrate=N/A speed=19.3x    frame= 8144 fps=465 q=-0.0 size=N/A time=00:05:39.67 bitrate=N/A speed=19.4x    frame= 8390 fps=465 q=-0.0 size=N/A time=00:05:49.93 bitrate=N/A speed=19.4x    frame= 8659 fps=466 q=-0.0 size=N/A time=00:06:01.15 bitrate=N/A speed=19.5x    frame= 8896 fps=466 q=-0.0 size=N/A time=00:06:11.03 bitrate=N/A speed=19.4x    frame= 9123 fps=465 q=-0.0 size=N/A time=00:06:20.50 bitrate=N/A speed=19.4x    frame= 9372 fps=466 q=-0.0 size=N/A time=00:06:30.89 bitrate=N/A speed=19.4x    frame= 9639 fps=467 q=-0.0 size=N/A time=00:06:42.02 bitrate=N/A speed=19.5x    frame= 9886 fps=468 q=-0.0 size=N/A time=00:06:52.32 bitrate=N/A speed=19.5x    frame=10138 fps=468 q=-0.0 size=N/A time=00:07:02.83 bitrate=N/A speed=19.5x    frame=10400 fps=469 q=-0.0 size=N/A time=00:07:13.76 bitrate=N/A speed=19.6x    frame=10639 fps=469 q=-0.0 size=N/A time=00:07:23.73 bitrate=N/A speed=19.6x    frame=10897 fps=469 q=-0.0 size=N/A time=00:07:34.49 bitrate=N/A speed=19.6x    frame=11111 fps=468 q=-0.0 size=N/A time=00:07:43.42 bitrate=N/A speed=19.5x    frame=11353 fps=468 q=-0.0 size=N/A time=00:07:53.51 bitrate=N/A speed=19.5x    frame=11573 fps=467 q=-0.0 size=N/A time=00:08:02.69 bitrate=N/A speed=19.5x    frame=11753 fps=465 q=-0.0 size=N/A time=00:08:10.23 bitrate=N/A speed=19.4x    frame=11981 fps=464 q=-0.0 size=N/A time=00:08:19.70 bitrate=N/A speed=19.4x    frame=12198 fps=464 q=-0.0 size=N/A time=00:08:28.75 bitrate=N/A speed=19.3x    frame=12466 fps=465 q=-0.0 size=N/A time=00:08:39.93 bitrate=N/A speed=19.4x    frame=12730 fps=466 q=-0.0 size=N/A time=00:08:50.94 bitrate=N/A speed=19.4x    frame=12974 fps=466 q=-0.0 size=N/A time=00:09:01.12 bitrate=N/A speed=19.4x    frame=13232 fps=466 q=-0.0 size=N/A time=00:09:11.88 bitrate=N/A speed=19.5x    frame=13470 fps=466 q=-0.0 size=N/A time=00:09:21.81 bitrate=N/A speed=19.4x    frame=13730 fps=467 q=-0.0 size=N/A time=00:09:32.65 bitrate=N/A speed=19.5x    frame=13944 fps=466 q=-0.0 size=N/A time=00:09:41.58 bitrate=N/A speed=19.4x    frame=14187 fps=466 q=-0.0 size=N/A time=00:09:51.71 bitrate=N/A speed=19.4x    frame=14431 fps=466 q=-0.0 size=N/A time=00:10:01.89 bitrate=N/A speed=19.4x    frame=14664 fps=466 q=-0.0 size=N/A time=00:10:11.61 bitrate=N/A speed=19.4x    frame=14918 fps=466 q=-0.0 size=N/A time=00:10:22.20 bitrate=N/A speed=19.5x    frame=15185 fps=467 q=-0.0 size=N/A time=00:10:33.34 bitrate=N/A speed=19.5x    frame=15435 fps=468 q=-0.0 size=N/A time=00:10:43.76 bitrate=N/A speed=19.5x    frame=15574 fps=464 q=-0.0 size=N/A time=00:10:49.56 bitrate=N/A speed=19.4x    frame=15813 fps=465 q=-0.0 size=N/A time=00:10:59.53 bitrate=N/A speed=19.4x    frame=16067 fps=465 q=-0.0 size=N/A time=00:11:10.12 bitrate=N/A speed=19.4x    frame=16307 fps=465 q=-0.0 size=N/A time=00:11:20.13 bitrate=N/A speed=19.4x    frame=16524 fps=464 q=-0.0 size=N/A time=00:11:29.18 bitrate=N/A speed=19.4x    frame=16766 fps=464 q=-0.0 size=N/A time=00:11:39.28 bitrate=N/A speed=19.4x    frame=17008 fps=464 q=-0.0 size=N/A time=00:11:49.37 bitrate=N/A speed=19.4x    frame=17244 fps=464 q=-0.0 size=N/A time=00:11:59.21 bitrate=N/A speed=19.4x    frame=17492 fps=465 q=-0.0 size=N/A time=00:12:09.56 bitrate=N/A speed=19.4x    frame=17764 fps=465 q=-0.0 size=N/A time=00:12:20.90 bitrate=N/A speed=19.4x    frame=18009 fps=465 q=-0.0 size=N/A time=00:12:31.12 bitrate=N/A speed=19.4x    frame=18243 fps=465 q=-0.0 size=N/A time=00:12:40.88 bitrate=N/A speed=19.4x    frame=18519 fps=466 q=-0.0 size=N/A time=00:12:52.39 bitrate=N/A speed=19.4x    frame=18789 fps=467 q=-0.0 size=N/A time=00:13:03.65 bitrate=N/A speed=19.5x    frame=19052 fps=468 q=-0.0 size=N/A time=00:13:14.62 bitrate=N/A speed=19.5x    frame=19292 fps=468 q=-0.0 size=N/A time=00:13:24.63 bitrate=N/A speed=19.5x    frame=19551 fps=468 q=-0.0 size=N/A time=00:13:35.43 bitrate=N/A speed=19.5x    frame=19786 fps=468 q=-0.0 size=N/A time=00:13:45.24 bitrate=N/A speed=19.5x    frame=20019 fps=468 q=-0.0 size=N/A time=00:13:54.95 bitrate=N/A speed=19.5x    frame=20252 fps=467 q=-0.0 size=N/A time=00:14:04.67 bitrate=N/A speed=19.5x    frame=20486 fps=467 q=-0.0 size=N/A time=00:14:14.43 bitrate=N/A speed=19.5x    frame=20756 fps=468 q=-0.0 size=N/A time=00:14:25.69 bitrate=N/A speed=19.5x    frame=21004 fps=468 q=-0.0 size=N/A time=00:14:36.04 bitrate=N/A speed=19.5x    frame=21269 fps=469 q=-0.0 size=N/A time=00:14:47.09 bitrate=N/A speed=19.5x    frame=21529 fps=469 q=-0.0 size=N/A time=00:14:57.93 bitrate=N/A speed=19.6x    frame=21747 fps=469 q=-0.0 size=N/A time=00:15:07.03 bitrate=N/A speed=19.5x    frame=21995 fps=469 q=-0.0 size=N/A time=00:15:17.37 bitrate=N/A speed=19.6x    frame=22258 fps=469 q=-0.0 size=N/A time=00:15:28.34 bitrate=N/A speed=19.6x    frame=22524 fps=470 q=-0.0 size=N/A time=00:15:39.43 bitrate=N/A speed=19.6x    frame=22766 fps=470 q=-0.0 size=N/A time=00:15:49.53 bitrate=N/A speed=19.6x    frame=23007 fps=470 q=-0.0 size=N/A time=00:15:59.58 bitrate=N/A speed=19.6x    frame=23251 fps=470 q=-0.0 size=N/A time=00:16:09.76 bitrate=N/A speed=19.6x    frame=23447 fps=469 q=-0.0 size=N/A time=00:16:17.93 bitrate=N/A speed=19.5x    frame=23648 fps=468 q=-0.0 size=N/A time=00:16:26.31 bitrate=N/A speed=19.5x    frame=23839 fps=467 q=-0.0 size=N/A time=00:16:34.28 bitrate=N/A speed=19.5x    frame=24055 fps=466 q=-0.0 size=N/A time=00:16:43.29 bitrate=N/A speed=19.5x    frame=24309 fps=467 q=-0.0 size=N/A time=00:16:53.88 bitrate=N/A speed=19.5x    frame=24525 fps=466 q=-0.0 size=N/A time=00:17:02.89 bitrate=N/A speed=19.4x    frame=24786 fps=467 q=-0.0 size=N/A time=00:17:13.78 bitrate=N/A speed=19.5x    frame=25040 fps=467 q=-0.0 size=N/A time=00:17:24.37 bitrate=N/A speed=19.5x    frame=25314 fps=467 q=-0.0 size=N/A time=00:17:35.80 bitrate=N/A speed=19.5x    frame=25593 fps=468 q=-0.0 size=N/A time=00:17:47.44 bitrate=N/A speed=19.5x    frame=25856 fps=469 q=-0.0 size=N/A time=00:17:58.41 bitrate=N/A speed=19.5x    frame=26135 fps=469 q=-0.0 size=N/A time=00:18:10.04 bitrate=N/A speed=19.6x    frame=26390 fps=469 q=-0.0 size=N/A time=00:18:20.68 bitrate=N/A speed=19.6x    frame=26648 fps=470 q=-0.0 size=N/A time=00:18:31.44 bitrate=N/A speed=19.6x    frame=26891 fps=470 q=-0.0 size=N/A time=00:18:41.57 bitrate=N/A speed=19.6x    frame=27142 fps=470 q=-0.0 size=N/A time=00:18:52.04 bitrate=N/A speed=19.6x    frame=27371 fps=470 q=-0.0 size=N/A time=00:19:01.59 bitrate=N/A speed=19.6x    frame=27615 fps=470 q=-0.0 size=N/A time=00:19:11.77 bitrate=N/A speed=19.6x    frame=27864 fps=470 q=-0.0 size=N/A time=00:19:22.16 bitrate=N/A speed=19.6x    frame=28140 fps=470 q=-0.0 size=N/A time=00:19:33.67 bitrate=N/A speed=19.6x    frame=28386 fps=470 q=-0.0 size=N/A time=00:19:43.93 bitrate=N/A speed=19.6x    frame=28611 fps=470 q=-0.0 size=N/A time=00:19:53.31 bitrate=N/A speed=19.6x    frame=28874 fps=470 q=-0.0 size=N/A time=00:20:04.28 bitrate=N/A speed=19.6x    frame=29146 fps=471 q=-0.0 size=N/A time=00:20:15.63 bitrate=N/A speed=19.6x    frame=29376 fps=471 q=-0.0 size=N/A time=00:20:25.22 bitrate=N/A speed=19.6x    frame=29618 fps=471 q=-0.0 size=N/A time=00:20:35.31 bitrate=N/A speed=19.6x    frame=29864 fps=471 q=-0.0 size=N/A time=00:20:45.57 bitrate=N/A speed=19.6x    frame=30126 fps=471 q=-0.0 size=N/A time=00:20:56.50 bitrate=N/A speed=19.7x    frame=30366 fps=471 q=-0.0 size=N/A time=00:21:06.51 bitrate=N/A speed=19.6x    frame=30620 fps=471 q=-0.0 size=N/A time=00:21:17.10 bitrate=N/A speed=19.7x    frame=30877 fps=471 q=-0.0 size=N/A time=00:21:27.82 bitrate=N/A speed=19.7x    frame=31120 fps=471 q=-0.0 size=N/A time=00:21:37.96 bitrate=N/A speed=19.7x    frame=31380 fps=472 q=-0.0 size=N/A time=00:21:48.80 bitrate=N/A speed=19.7x    frame=31658 fps=472 q=-0.0 size=N/A time=00:22:00.40 bitrate=N/A speed=19.7x    frame=31904 fps=472 q=-0.0 size=N/A time=00:22:10.66 bitrate=N/A speed=19.7x    frame=32156 fps=472 q=-0.0 size=N/A time=00:22:21.17 bitrate=N/A speed=19.7x    frame=32376 fps=472 q=-0.0 size=N/A time=00:22:30.34 bitrate=N/A speed=19.7x    frame=32631 fps=472 q=-0.0 size=N/A time=00:22:40.98 bitrate=N/A speed=19.7x    frame=32892 fps=472 q=-0.0 size=N/A time=00:22:51.87 bitrate=N/A speed=19.7x    frame=33135 fps=472 q=-0.0 size=N/A time=00:23:02.00 bitrate=N/A speed=19.7x    frame=33385 fps=473 q=-0.0 size=N/A time=00:23:12.43 bitrate=N/A speed=19.7x    frame=33630 fps=473 q=-0.0 size=N/A time=00:23:22.65 bitrate=N/A speed=19.7x    frame=33859 fps=472 q=-0.0 size=N/A time=00:23:32.20 bitrate=N/A speed=19.7x    frame=34062 fps=472 q=-0.0 size=N/A time=00:23:40.66 bitrate=N/A speed=19.7x    [Parsed_psnr_10 @ 000001e4152ea840] PSNR y:49.218107 u:48.885331 v:49.521789 average:49.209358 min:39.898910 max:inf
[out#0/null @ 000001e4155a1440] video:14697KiB audio:267516KiB subtitle:0KiB other streams:0KiB global headers:0KiB muxing overhead: unknown
frame=34205 fps=471 q=-0.0 Lsize=N/A time=00:23:46.63 bitrate=N/A speed=19.7x    
